HIERARCHY
ROOT hip
{
  OFFSET 0 0 0
  CHANNELS 6 Xposition Yposition Zposition Zrotation Yrotation Xrotation
  JOINT abdomen
  {
    OFFSET 0 20.6881 -0.73152
    CHANNELS 3 Zrotation Xrotation Yrotation
    JOINT chest
    {
      OFFSET 0 11.7043 -0.48768
      CHANNELS 3 Zrotation Xrotation Yrotation
      JOINT neck
      {
        OFFSET 0 22.1894 -2.19456
        CHANNELS 3 Zrotation Xrotation Yrotation
        JOINT head
        {
          OFFSET -0.24384 7.07133 1.2192
          CHANNELS 3 Zrotation Xrotation Yrotation
          JOINT leftEye
          {
            OFFSET 4.14528 8.04674 8.04672
            CHANNELS 3 Zrotation Xrotation Yrotation
            End Site
            {
              OFFSET 1 0 0
            }
          }
          JOINT rightEye
          {
            OFFSET -3.6576 8.04674 8.04672
            CHANNELS 3 Zrotation Xrotation Yrotation
            End Site
            {
              OFFSET 1 0 0
            }
          }
        }
      }
      JOINT rCollar
      {
        OFFSET -2.68224 19.2634 -4.8768
        CHANNELS 3 Zrotation Xrotation Yrotation
        JOINT rShldr
        {
          OFFSET -8.77824 -1.95073 1.46304
          CHANNELS 3 Zrotation Xrotation Yrotation
          JOINT rForeArm
          {
            OFFSET -28.1742 -1.7115 0.48768
            CHANNELS 3 Zrotation Xrotation Yrotation
            JOINT rHand
            {
              OFFSET -22.5879 0.773209 7.07136
              CHANNELS 3 Zrotation Xrotation Yrotation
              JOINT rThumb1
              {
                OFFSET -1.2192 -0.487915 3.41376
                CHANNELS 3 Zrotation Xrotation Yrotation
                JOINT rThumb2
                {
                  OFFSET -3.37035 -0.52449 3.41376
                  CHANNELS 3 Zrotation Xrotation Yrotation
                  End Site
                  {
                    OFFSET -1.78271 -1.18214 1.43049
                  }
                }
              }
              JOINT rIndex1
              {
                OFFSET -7.75947 0.938293 5.60832
                CHANNELS 3 Zrotation Xrotation Yrotation
                JOINT rIndex2
                {
                  OFFSET -2.54057 -0.884171 1.56538
                  CHANNELS 3 Zrotation Xrotation Yrotation
                  End Site
                  {
                    OFFSET -1.62519 -0.234802 1.16502
                  }
                }
              }
              JOINT rMid1
              {
                OFFSET -8.24714 1.18213 3.41376
                CHANNELS 3 Zrotation Xrotation Yrotation
                JOINT rMid2
                {
                  OFFSET -3.10165 -0.590103 1.0647
                  CHANNELS 3 Zrotation Xrotation Yrotation
                  End Site
                  {
                    OFFSET -2.48547 -0.328903 0.83742
                  }
                }
              }
              JOINT rRing1
              {
                OFFSET -8.82822 0.546677 1.51678
                CHANNELS 3 Zrotation Xrotation Yrotation
                JOINT rRing2
                {
                  OFFSET -2.60934 -0.819778 -0.0198488
                  CHANNELS 3 Zrotation Xrotation Yrotation
                  End Site
                  {
                    OFFSET -2.33842 -0.294052 0.168128
                  }
                }
              }
              JOINT rPinky1
              {
                OFFSET -8.27202 -0.0477905 -0.4584
                CHANNELS 3 Zrotation Xrotation Yrotation
                JOINT rPinky2
                {
                  OFFSET -1.82734 -0.647385 -0.700984
                  CHANNELS 3 Zrotation Xrotation Yrotation
                  End Site
                  {
                    OFFSET -1.69225 -0.51767 -0.607171
                  }
                }
              }
            }
          }
        }
      }
      JOINT lCollar
      {
        OFFSET 2.68224 19.2634 -4.8768
        CHANNELS 3 Zrotation Xrotation Yrotation
        JOINT lShldr
        {
          OFFSET 8.77824 -1.95073 1.46304
          CHANNELS 3 Zrotation Xrotation Yrotation
          JOINT lForeArm
          {
            OFFSET 28.1742 -1.7115 0.48768
            CHANNELS 3 Zrotation Xrotation Yrotation
            JOINT lHand
            {
              OFFSET 22.5879 0.773209 7.07136
              CHANNELS 3 Zrotation Xrotation Yrotation
              JOINT lThumb1
              {
                OFFSET 1.2192 -0.487915 3.41376
                CHANNELS 3 Zrotation Xrotation Yrotation
                JOINT lThumb2
                {
                  OFFSET 3.37035 -0.52449 3.41376
                  CHANNELS 3 Zrotation Xrotation Yrotation
                  End Site
                  {
                    OFFSET 1.78271 -1.18214 1.43049
                  }
                }
              }
              JOINT lIndex1
              {
                OFFSET 7.75947 0.938293 5.60832
                CHANNELS 3 Zrotation Xrotation Yrotation
                JOINT lIndex2
                {
                  OFFSET 2.54057 -0.884171 1.56538
                  CHANNELS 3 Zrotation Xrotation Yrotation
                  End Site
                  {
                    OFFSET 1.62519 -0.234802 1.16502
                  }
                }
              }
              JOINT lMid1
              {
                OFFSET 8.24714 1.18213 3.41376
                CHANNELS 3 Zrotation Xrotation Yrotation
                JOINT lMid2
                {
                  OFFSET 3.10165 -0.590103 1.0647
                  CHANNELS 3 Zrotation Xrotation Yrotation
                  End Site
                  {
                    OFFSET 2.48547 -0.328903 0.83742
                  }
                }
              }
              JOINT lRing1
              {
                OFFSET 8.82822 0.546677 1.51678
                CHANNELS 3 Zrotation Xrotation Yrotation
                JOINT lRing2
                {
                  OFFSET 2.60934 -0.819778 -0.0198488
                  CHANNELS 3 Zrotation Xrotation Yrotation
                  End Site
                  {
                    OFFSET 2.33842 -0.294052 0.168128
                  }
                }
              }
              JOINT lPinky1
              {
                OFFSET 8.27202 -0.0477905 -0.4584
                CHANNELS 3 Zrotation Xrotation Yrotation
                JOINT lPinky2
                {
                  OFFSET 1.82734 -0.647385 -0.700984
                  CHANNELS 3 Zrotation Xrotation Yrotation
                  End Site
                  {
                    OFFSET 1.69225 -0.51767 -0.607171
                  }
                }
              }
            }
          }
        }
      }
    }
  }
  JOINT rButtock
  {
    OFFSET -8.77824 4.35084 1.2192
    CHANNELS 3 Zrotation Xrotation Yrotation
    JOINT rThigh
    {
      OFFSET 0 -1.70687 -2.19456
      CHANNELS 3 Zrotation Xrotation Yrotation
      JOINT rShin
      {
        OFFSET 0 -36.8199 0.73152
        CHANNELS 3 Zrotation Xrotation Yrotation
        JOINT rFoot
        {
          OFFSET 0.73152 -45.1104 -5.12064
          CHANNELS 3 Zrotation Xrotation Yrotation
          End Site
          {
            OFFSET -1.1221 -3.69964 12.103
          }
        }
      }
    }
  }
  JOINT lButtock
  {
    OFFSET 8.77824 4.35084 1.2192
    CHANNELS 3 Zrotation Xrotation Yrotation
    JOINT lThigh
    {
      OFFSET 0 -1.70687 -2.19456
      CHANNELS 3 Zrotation Xrotation Yrotation
      JOINT lShin
      {
        OFFSET 0 -36.8199 0.73152
        CHANNELS 3 Zrotation Xrotation Yrotation
        JOINT lFoot
        {
          OFFSET -0.73152 -45.1104 -5.12064
          CHANNELS 3 Zrotation Xrotation Yrotation
          End Site
          {
            OFFSET 1.1221 -3.69964 12.103
          }
        }
      }
    }
  }
}
MOTION
Frames:	5
Frame Time:	0.00833333
-7.81205 85.1388 128.178 0.0 0.0 0.0 0.410561 -0.00336363 0.0117798 0.113451 -0.00539419 0.0196579 6.63202e-15 -1.59028e-15 -4.34841e-17 1.99748e-14 3.18055e-15 -1.14922e-16 -0.0 0.0 0.0 -0.0 0.0 0.0 3.37812e-15 -1.55301e-18 1.49089e-16 7.31508e-14 -2.98177e-16 7.95139e-16 1.20881e-12 -3.60993e-13 -1.27222e-14 1.3809e-11 3.58235e-13 -6.04305e-14 3.2577e-11 -2.90833e-15 -1.43125e-13 5.62489e-11 3.18055e-15 -2.54444e-13 3.25816e-11 -3.18055e-15 -1.46306e-13 7.73091 5.47488 0.417314 3.25771e-11 -3.27995e-15 -1.39944e-13 2.90554 0.965183 0.102902 3.25801e-11 -2.48481e-15 -1.4392e-13 10.2786 0.731801 0.0259123 3.25715e-11 0.0 -1.36764e-13 2.22167 -0.733487 -0.20892 3.38078e-15 -7.76503e-19 -1.49089e-16 6.80348e-14 8.07563e-17 -9.93923e-16 1.20464e-12 3.6318e-13 -1.59028e-14 1.38111e-11 -3.52346e-13 -3.49861e-14 3.25749e-11 2.31478e-14 -1.43125e-13 5.62656e-11 3.49861e-14 -2.44903e-13 3.25713e-11 2.3059e-14 -1.36764e-13 -7.73091 5.47488 -0.417314 3.25762e-11 2.31584e-14 -1.36764e-13 -2.90554 0.965183 -0.102902 3.25668e-11 2.33572e-14 -1.4233e-13 -10.2786 0.731801 -0.0259123 3.25786e-11 2.54444e-14 -1.49486e-13 -2.22167 -0.733487 0.20892 -2.03217e-16 0.0 -3.88251e-19 0.771181 -4.17175 -0.0657014 -0.00265897 2.0054 -0.018307 -0.462427 2.16694 0.0961811 2.03217e-16 0.0 3.88251e-19 -0.14266 -2.55999 0.0260559 0.00715903 -0.914029 0.0621352 0.453177 3.47455 -0.121139
-7.14111 83.6465 124.966 178.836 -2.0452 -152.35 -1.23732 -8.31054 -0.956334 0.927651 3.63437 -0.373474 0.0399083 3.81424 -1.40004 1.33153 -5.67602 -2.43263 -0.0 0.0 0.0 -0.0 0.0 0.0 -1.93198e-14 -4.19071e-14 4.4416e-16 23.0657 2.63471 -1.57538 -5.12368 -2.54166 7.75722 0.00358251 -1.32774 -0.18642 5.01802e-10 -4.94094e-10 3.30191e-10 8.67237e-10 -8.54229e-10 5.72143e-10 5.01806e-10 -4.94093e-10 3.30185e-10 7.73091 5.47488 0.417314 5.01802e-10 -4.94094e-10 3.30193e-10 2.90554 0.965183 0.102902 5.01806e-10 -4.94093e-10 3.3019e-10 10.2786 0.731801 0.0259123 5.01797e-10 -4.9409e-10 3.30197e-10 2.22167 -0.733487 -0.20892 -1.94223e-14 -4.19076e-14 8.46388e-17 -20.7855 6.58031 -0.760376 3.04022 -1.20844 -4.91979 -0.000135861 0.282815 -0.0397456 4.25063e-10 -1.81423e-10 -3.51748e-10 7.335e-10 -3.14734e-10 -6.08819e-10 4.25059e-10 -1.81425e-10 -3.51741e-10 -7.73091 5.47488 -0.417314 4.25064e-10 -1.81424e-10 -3.51742e-10 -2.90554 0.965183 -0.102902 4.25057e-10 -1.81424e-10 -3.51749e-10 -10.2786 0.731801 -0.0259123 4.25068e-10 -1.81422e-10 -3.51758e-10 -2.22167 -0.733487 0.20892 -2.03217e-16 0.0 -3.88251e-19 1.03198 -12.7929 1.7232 0.00567739 4.87489 0.0558669 -0.736715 -1.81593 -1.51161 2.03217e-16 0.0 3.88251e-19 -1.08444 -9.52387 -1.81731 0.0118272 1.07337 0.0483096 0.620169 1.90111 -0.637961
-7.14662 83.6512 124.965 178.792 -2.0385 -152.348 -3.29459 -17.0846 -2.05168 1.84254 7.48136 -0.795034 0.287589 7.8343 -2.90631 2.20309 -11.6299 -5.08441 -0.0 0.0 0.0 -0.0 0.0 0.0 -4.36697e-14 -8.65708e-14 7.45443e-16 47.6085 5.41444 -3.25429 -9.80258 -5.07618 16.0116 -0.00203435 -2.73115 -0.383806 1.00832e-09 -1.03056e-09 6.93644e-10 1.7427e-09 -1.78172e-09 1.20193e-09 1.00832e-09 -1.03056e-09 6.93635e-10 7.73091 5.47488 0.417314 1.00832e-09 -1.03056e-09 6.93645e-10 2.90554 0.965183 0.102902 1.00833e-09 -1.03056e-09 6.93644e-10 10.2786 0.731801 0.0259123 1.00831e-09 -1.03056e-09 6.9365e-10 2.22167 -0.733487 -0.20892 -4.38885e-14 -8.65725e-14 3.16813e-16 -42.5643 13.5281 -1.59534 6.03174 -2.45757 -10.1315 0.000169357 0.595003 -0.0836228 8.39599e-10 -3.83663e-10 -7.46406e-10 1.4487e-09 -6.65545e-10 -1.29191e-09 8.39595e-10 -3.83668e-10 -7.46398e-10 -7.73091 5.47488 -0.417314 8.39601e-10 -3.83665e-10 -7.46402e-10 -2.90554 0.965183 -0.102902 8.39596e-10 -3.83665e-10 -7.4641e-10 -10.2786 0.731801 -0.0259123 8.39606e-10 -3.83663e-10 -7.46421e-10 -2.22167 -0.733487 0.20892 -2.03217e-16 0.0 -3.88251e-19 1.93728 -21.8781 3.79961 0.00651417 7.91115 0.135208 -1.271 -6.02054 -3.22831 2.03217e-16 0.0 3.88251e-19 -2.58556 -16.8622 -3.88088 0.0177247 3.17537 0.0337179 0.765926 0.236396 -1.1828
-7.14473 83.6621 124.96 178.805 -2.0569 -152.356 -5.44798 -24.8951 -3.15594 2.70821 10.9119 -1.1788 0.687981 11.4151 -4.27555 2.49762 -16.9025 -7.59186 -0.0 0.0 0.0 -0.0 0.0 0.0 -6.47156e-14 -1.25718e-13 1.0343e-15 69.6346 7.88012 -4.76626 -13.3564 -7.06713 23.4372 -0.0152253 -3.98304 -0.560464 1.44025e-09 -1.48227e-09 9.90859e-10 2.48921e-09 -2.56269e-09 1.71694e-09 1.44025e-09 -1.48227e-09 9.90848e-10 7.73091 5.47488 0.417314 1.44025e-09 -1.48228e-09 9.9086e-10 2.90554 0.965183 0.102902 1.44026e-09 -1.48227e-09 9.90859e-10 10.2786 0.731801 0.0259123 1.44025e-09 -1.48227e-09 9.90865e-10 2.22167 -0.733487 -0.20892 -6.50286e-14 -1.25721e-13 5.52093e-16 -61.805 19.7266 -2.40746 8.50474 -3.51855 -14.7846 0.000769644 0.848443 -0.119248 1.21004e-09 -5.44316e-10 -1.05496e-09 2.08797e-09 -9.44271e-10 -1.82597e-09 1.21003e-09 -5.44322e-10 -1.05495e-09 -7.73091 5.47488 -0.417314 1.21004e-09 -5.44318e-10 -1.05495e-09 -2.90554 0.965183 -0.102902 1.21004e-09 -5.44319e-10 -1.05496e-09 -10.2786 0.731801 -0.0259123 1.21005e-09 -5.44317e-10 -1.05498e-09 -2.22167 -0.733487 0.20892 -2.03217e-16 0.0 -3.88251e-19 3.38472 -29.917 5.97017 -0.000276908 10.6138 0.20713 -1.96257 -9.75 -4.7942 2.03217e-16 0.0 3.88251e-19 -4.41512 -23.3542 -5.91494 0.0240368 5.04818 0.0207293 0.869018 -1.24489 -1.67139
-7.14322 83.6545 124.958 178.833 -2.0977 -152.402 -7.16926 -30.3252 -4.03252 3.34217 13.3032 -1.4498 1.06341 13.9245 -5.23021 2.41804 -20.5904 -9.46203 -0.0 0.0 0.0 -0.0 0.0 0.0 -7.75018e-14 -1.51075e-13 1.2921e-15 85.0574 9.58372 -5.82247 -15.5037 -8.2341 28.6317 -0.0290116 -4.85626 -0.684158 1.68572e-09 -1.7221e-09 1.12248e-09 2.91336e-09 -2.97739e-09 1.94503e-09 1.68572e-09 -1.7221e-09 1.12247e-09 7.73091 5.47488 0.417314 1.68572e-09 -1.7221e-09 1.12248e-09 2.90554 0.965183 0.102902 1.68572e-09 -1.7221e-09 1.12248e-09 10.2786 0.731801 0.0259123 1.68571e-09 -1.7221e-09 1.12248e-09 2.22167 -0.733487 -0.20892 -7.78535e-14 -1.51079e-13 7.95139e-16 -75.0948 24.0651 -3.04426 10.115 -4.21146 -18.0171 0.00111872 0.955014 -0.134231 1.47023e-09 -6.01001e-10 -1.14824e-09 2.53739e-09 -1.04278e-09 -1.98744e-09 1.47023e-09 -6.01008e-10 -1.14823e-09 -7.73091 5.47488 -0.417314 1.47024e-09 -6.01003e-10 -1.14824e-09 -2.90554 0.965183 -0.102902 1.47023e-09 -6.01004e-10 -1.14825e-09 -10.2786 0.731801 -0.0259123 1.47024e-09 -6.01002e-10 -1.14826e-09 -2.22167 -0.733487 0.20892 -2.03217e-16 0.0 -3.88251e-19 4.82816 -35.4493 7.76958 -0.00998348 12.4825 0.257868 -2.56568 -12.3234 -5.9125 2.03217e-16 0.0 3.88251e-19 -6.00986 -27.8209 -7.49853 0.0293509 6.348 0.0117483 0.925345 -2.26859 -2.01833
